<?xml version="1.0" encoding="UTF-8" standalone="no"?>
<!-- Created with Inkscape (http://www.inkscape.org/) -->

<svg
   version="1.0"
   id="svg2"
   sodipodi:version="0.32"
   inkscape:version="1.3-dev (77bc73e, 2022-05-18)"
   sodipodi:docname="cython.svg"
   width="1088"
   height="687"
   inkscape:output_extension="org.inkscape.output.svg.inkscape"
   sodipodi:modified="true"
   inkscape:export-filename="/home/sbehnel/source/Python/pyrex/cython-logo-192.png"
   inkscape:export-xdpi="39.310001"
   inkscape:export-ydpi="39.310001"
   viewBox="0 0 1868.64 1179.923"
   xmlns:inkscape="http://www.inkscape.org/namespaces/inkscape"
   xmlns:sodipodi="http://sodipodi.sourceforge.net/DTD/sodipodi-0.dtd"
   xmlns:xlink="http://www.w3.org/1999/xlink"
   xmlns="http://www.w3.org/2000/svg"
   xmlns:svg="http://www.w3.org/2000/svg"
   xmlns:rdf="http://www.w3.org/1999/02/22-rdf-syntax-ns#"
   xmlns:cc="http://creativecommons.org/ns#"
   xmlns:dc="http://purl.org/dc/elements/1.1/">
  <metadata
     id="metadata371">
    <rdf:RDF>
      <cc:Work
         rdf:about="">
        <dc:format>image/svg+xml</dc:format>
        <dc:type
           rdf:resource="http://purl.org/dc/dcmitype/StillImage" />
      </cc:Work>
    </rdf:RDF>
  </metadata>
  <sodipodi:namedview
     inkscape:window-height="780"
     inkscape:window-width="1765"
     inkscape:pageshadow="2"
     inkscape:pageopacity="0.0"
     guidetolerance="10.0"
     gridtolerance="10.0"
     objecttolerance="10.0"
     borderopacity="1.0"
     bordercolor="#666666"
     pagecolor="#ffffff"
     id="base"
     inkscape:zoom="0.4358067"
     inkscape:cx="-92.9311"
     inkscape:cy="346.4839"
     inkscape:window-x="365"
     inkscape:window-y="394"
     inkscape:current-layer="svg2"
     width="439.54px"
     height="439.54px"
     units="mm"
     inkscape:showpageshadow="2"
     inkscape:pagecheckerboard="0"
     inkscape:deskcolor="#d1d1d1"
     showgrid="false"
     inkscape:window-maximized="0" />
  <defs
     id="defs4">
    <linearGradient
       id="linearGradient2795">
      <stop
         style="stop-color:#b8b8b8;stop-opacity:0.49803922;"
         offset="0"
         id="stop2797" />
      <stop
         style="stop-color:#7f7f7f;stop-opacity:0;"
         offset="1"
         id="stop2799" />
    </linearGradient>
    <linearGradient
       id="linearGradient2787">
      <stop
         style="stop-color:#7f7f7f;stop-opacity:0.5;"
         offset="0"
         id="stop2789" />
      <stop
         style="stop-color:#7f7f7f;stop-opacity:0;"
         offset="1"
         id="stop2791" />
    </linearGradient>
    <linearGradient
       id="linearGradient3676">
      <stop
         style="stop-color:#b2b2b2;stop-opacity:0.5;"
         offset="0"
         id="stop3678" />
      <stop
         style="stop-color:#b3b3b3;stop-opacity:0;"
         offset="1"
         id="stop3680" />
    </linearGradient>
    <linearGradient
       id="linearGradient3236">
      <stop
         style="stop-color:#f4f4f4;stop-opacity:1"
         offset="0"
         id="stop3244" />
      <stop
         style="stop-color:white;stop-opacity:1"
         offset="1"
         id="stop3240" />
    </linearGradient>
    <linearGradient
       id="linearGradient4671">
      <stop
         style="stop-color:#ffd43b;stop-opacity:1;"
         offset="0"
         id="stop4673" />
      <stop
         style="stop-color:#ffe873;stop-opacity:1"
         offset="1"
         id="stop4675" />
    </linearGradient>
    <linearGradient
       id="linearGradient4689">
      <stop
         style="stop-color:#5a9fd4;stop-opacity:1;"
         offset="0"
         id="stop4691" />
      <stop
         style="stop-color:#306998;stop-opacity:1;"
         offset="1"
         id="stop4693" />
    </linearGradient>
    <linearGradient
       x1="224.24"
       y1="144.7572"
       x2="-65.3085"
       y2="144.7572"
       id="linearGradient2987"
       xlink:href="#linearGradient4671"
       gradientUnits="userSpaceOnUse"
       gradientTransform="translate(100.2702,99.61116)" />
    <linearGradient
       x1="172.9421"
       y1="77.47598"
       x2="26.6703"
       y2="76.31313"
       id="linearGradient2990"
       xlink:href="#linearGradient4689"
       gradientUnits="userSpaceOnUse"
       gradientTransform="translate(100.2702,99.61116)" />
    <linearGradient
       inkscape:collect="always"
       xlink:href="#linearGradient4689"
       id="linearGradient2587"
       gradientUnits="userSpaceOnUse"
       gradientTransform="translate(100.2702,99.61116)"
       x1="172.9421"
       y1="77.47598"
       x2="26.6703"
       y2="76.31313" />
    <linearGradient
       inkscape:collect="always"
       xlink:href="#linearGradient4671"
       id="linearGradient2589"
       gradientUnits="userSpaceOnUse"
       gradientTransform="translate(100.2702,99.61116)"
       x1="224.24"
       y1="144.7572"
       x2="-65.3085"
       y2="144.7572" />
    <linearGradient
       inkscape:collect="always"
       xlink:href="#linearGradient4689"
       id="linearGradient2248"
       gradientUnits="userSpaceOnUse"
       gradientTransform="translate(100.2702,99.61116)"
       x1="172.9421"
       y1="77.47598"
       x2="26.6703"
       y2="76.31313" />
    <linearGradient
       inkscape:collect="always"
       xlink:href="#linearGradient4671"
       id="linearGradient2250"
       gradientUnits="userSpaceOnUse"
       gradientTransform="translate(100.2702,99.61116)"
       x1="224.24"
       y1="144.7572"
       x2="-65.3085"
       y2="144.7572" />
    <linearGradient
       inkscape:collect="always"
       xlink:href="#linearGradient4671"
       id="linearGradient2255"
       gradientUnits="userSpaceOnUse"
       gradientTransform="matrix(0.562541,0,0,0.567972,-11.5974,-7.60954)"
       x1="224.24"
       y1="144.7572"
       x2="-65.3085"
       y2="144.7572" />
    <linearGradient
       inkscape:collect="always"
       xlink:href="#linearGradient4689"
       id="linearGradient2258"
       gradientUnits="userSpaceOnUse"
       gradientTransform="matrix(0.562541,0,0,0.567972,-11.5974,-7.60954)"
       x1="172.9421"
       y1="76.17622"
       x2="26.6703"
       y2="76.31313" />
    <radialGradient
       inkscape:collect="always"
       xlink:href="#linearGradient2795"
       id="radialGradient2801"
       cx="61.51888"
       cy="132.2858"
       fx="61.51888"
       fy="132.2858"
       r="29.03691"
       gradientTransform="matrix(1,0,0,0.177966,0,108.7434)"
       gradientUnits="userSpaceOnUse" />
    <linearGradient
       inkscape:collect="always"
       xlink:href="#linearGradient4671"
       id="linearGradient1475"
       gradientUnits="userSpaceOnUse"
       gradientTransform="matrix(0.562541,0,0,0.567972,33.69848,31.68078)"
       x1="150.9611"
       y1="192.3518"
       x2="112.0314"
       y2="137.273" />
    <linearGradient
       inkscape:collect="always"
       xlink:href="#linearGradient4689"
       id="linearGradient1478"
       gradientUnits="userSpaceOnUse"
       gradientTransform="matrix(0.562541,0,0,0.567972,33.69848,31.68078)"
       x1="26.64894"
       y1="20.60378"
       x2="135.6653"
       y2="114.3977" />
    <radialGradient
       inkscape:collect="always"
       xlink:href="#linearGradient2795"
       id="radialGradient1480"
       gradientUnits="userSpaceOnUse"
       gradientTransform="matrix(0,-0.8860326,3.894486,1.400073e-6,-16.37983,954.981)"
       cx="61.51888"
       cy="132.2858"
       fx="61.51888"
       fy="132.2858"
       r="29.03691" />
    <linearGradient
       inkscape:collect="always"
       xlink:href="#linearGradient4689"
       id="linearGradient3210"
       gradientUnits="userSpaceOnUse"
       gradientTransform="matrix(0.562541,0,0,0.567972,33.69848,31.68078)"
       x1="26.64894"
       y1="20.60378"
       x2="135.6653"
       y2="114.3977" />
    <linearGradient
       inkscape:collect="always"
       xlink:href="#linearGradient4671"
       id="linearGradient3212"
       gradientUnits="userSpaceOnUse"
       gradientTransform="matrix(0.562541,0,0,0.567972,33.69848,31.68078)"
       x1="150.9611"
       y1="192.3518"
       x2="112.0314"
       y2="137.273" />
    <filter
       style="color-interpolation-filters:sRGB;"
       inkscape:label="Drop Shadow"
       id="filter19"
       x="-0.04436098"
       y="-0.09941803"
       width="1.118856"
       height="1.261209">
      <feFlood
         flood-opacity="0.25098"
         flood-color="rgb(0,0,0)"
         result="flood"
         id="feFlood18" />
      <feComposite
         in="flood"
         in2="SourceGraphic"
         operator="in"
         result="composite1"
         id="feComposite18" />
      <feGaussianBlur
         in="composite1"
         stdDeviation="15"
         result="blur"
         id="feGaussianBlur18" />
      <feOffset
         dx="24.4548"
         dy="22.5857"
         result="offset"
         id="feOffset18" />
      <feComposite
         in="SourceGraphic"
         in2="offset"
         operator="over"
         result="fbSourceGraphic"
         id="feComposite19" />
      <feColorMatrix
         result="fbSourceGraphicAlpha"
         in="fbSourceGraphic"
         values="0 0 0 -1 0 0 0 0 -1 0 0 0 0 -1 0 0 0 0 1 0"
         id="feColorMatrix19" />
      <feFlood
         id="feFlood19"
         flood-opacity="0.25098"
         flood-color="rgb(0,0,0)"
         result="flood"
         in="fbSourceGraphic" />
      <feComposite
         in2="fbSourceGraphic"
         id="feComposite20"
         in="flood"
         operator="in"
         result="composite1" />
      <feGaussianBlur
         id="feGaussianBlur20"
         in="composite1"
         stdDeviation="15"
         result="blur" />
      <feOffset
         id="feOffset20"
         dx="24.4548"
         dy="22.5857"
         result="offset" />
      <feComposite
         in2="offset"
         id="feComposite21"
         in="fbSourceGraphic"
         operator="over"
         result="composite2" />
    </filter>
  </defs>
  <g
     id="g1"
     style="filter:url(#filter19)">
    <ellipse
       style="opacity:0.44382;fill:url(#radialGradient1480);fill-opacity:1;fill-rule:nonzero;stroke:none;stroke-width:56.9306;stroke-miterlimit:4;stroke-dasharray:none;stroke-opacity:1"
       id="path1894"
       cx="498.8051"
       cy="900.4735"
       rx="132.6793"
       ry="25.72762" />
    <g
       id="g3206"
       transform="matrix(4.092004,0,0,4.092004,93.45711,224.0967)">
      <path
         id="path1948"
         d="m 103.6084,43.38407 c -4.58367,0.0213 -8.96095,0.41222 -12.81251,1.09375 c -11.34622,2.0045 -13.40625,6.2001 -13.40625,13.9375 v 10.21875 h 26.81246 v 3.40625 H 77.38964 h -10.0625 c -7.79246,0 -14.61576,4.68372 -16.75,13.59375 c -2.46182,10.21297 -2.57102,16.58603 0,27.25003 c 1.90593,7.9378 6.45754,13.5937 14.25,13.5937 h 9.21875 v -12.25 c 0,-8.8499 7.65714,-16.65623 16.75,-16.65623 h 26.78121 c 7.455,0 13.4063,-6.13816 13.4063,-13.625 V 58.41532 c 0,-7.26634 -6.13,-12.72478 -13.4063,-13.9375 c -4.606,-0.76672 -9.3851,-1.11505 -13.9687,-1.09375 z m -14.50001,8.21875 c 2.76954,0 5.03125,2.29865 5.03125,5.125 c -1e-5,2.81634 -2.26171,5.09375 -5.03125,5.09375 c -2.77948,0 -5.03125,-2.27741 -5.03125,-5.09375 c 0,-2.82635 2.25177,-5.125 5.03125,-5.125 z"
         style="fill:url(#linearGradient3210);fill-opacity:1" />
      <path
         id="path1950"
         d="m 134.3271,72.04032 v 11.90625 c 0,9.23075 -7.8259,17.00003 -16.75,17.00003 H 90.79589 c -7.33584,0 -13.40625,6.2784 -13.40625,13.625 v 25.5312 c 0,7.2664 6.31859,11.5403 13.40625,13.625 c 8.48733,2.4956 16.62621,2.9466 26.78121,0 c 6.7502,-1.9544 13.4063,-5.8876 13.4063,-13.625 v -10.2187 h -26.7813 v -3.4063 h 26.7813 h 13.4062 c 7.7925,0 10.6963,-5.4354 13.4063,-13.5937 c 2.7993,-8.3989 2.6802,-16.47581 0,-27.25003 C 155.8701,77.87663 152.192,72.04032 144.3896,72.04032 Z m -15.0625,64.65628 c 2.7795,0 5.0313,2.2774 5.0313,5.0937 c 0,2.8264 -2.2518,5.125 -5.0313,5.125 c -2.7695,0 -5.0312,-2.2986 -5.0312,-5.125 c 0,-2.8163 2.2617,-5.0937 5.0312,-5.0937 z"
         style="fill:url(#linearGradient3212);fill-opacity:1" />
    </g>
    <g
       id="g3179"
       transform="matrix(3.692618,0,0,3.692618,232.4754,405.3012)">
      <path
         d="m 210.6312,83.26574 c 0,9.92254 -0.9942,16.79426 -2.9826,20.61506 c -1.9981,3.8209 -5.7995,6.8717 -11.4138,9.1428 c -4.5519,1.7935 -9.4742,2.7682 -14.7571,2.9339 l -1.4718,-5.6143 c 5.3706,-0.7311 9.1525,-1.4621 11.3456,-2.1931 c 4.3179,-1.4621 7.2811,-3.7039 8.9088,-6.706 c 1.3061,-2.44656 1.9494,-7.11541 1.9494,-14.0261 v -2.3198 c -6.0919,2.76817 -12.4762,4.14251 -19.153,4.14251 c -4.3862,0 -8.2558,-1.37434 -11.5893,-4.14251 c -3.7429,-3.01186 -5.6143,-6.83272 -5.6143,-11.46258 V 36.55769 l 8.9088,-3.05084 v 37.3216 c 0,3.98656 1.2866,7.0569 3.8599,9.21101 c 2.5732,2.1541 5.9067,3.18729 9.9907,3.10932 c 4.0841,-0.0877 8.4605,-1.66676 13.1099,-4.75658 V 34.85195 h 8.9088 z"
         style="fill:#646464;fill-opacity:1"
         id="path48" />
      <path
         d="m 245.4088,88.99703 c -1.0624,0.0877 -2.0371,0.12671 -2.9338,0.12671 c -5.0393,0 -8.9674,-1.19889 -11.7745,-3.60642 c -2.7974,-2.40753 -4.201,-5.73129 -4.201,-9.97127 V 40.45652 h -6.1017 v -5.60457 h 6.1017 V 19.96814 l 8.8991,-3.16781 v 18.05162 h 10.0102 v 5.60457 h -10.0102 v 34.84585 c 0,3.34325 0.8967,5.71179 2.6902,7.09588 c 1.54,1.14041 3.9865,1.79347 7.32,1.95917 z"
         style="fill:#646464;fill-opacity:1"
         id="path50" />
      <path
         d="m 299.3492,88.266 h -8.9088 V 53.87827 c 0,-3.49921 -0.8188,-6.51106 -2.4465,-9.02581 c -1.8812,-2.84615 -4.4934,-4.26923 -7.8464,-4.26923 c -4.0841,0 -9.1916,2.15411 -15.3225,6.46233 V 88.266 h -8.9088 V 6.068793 l 8.9088,-2.80716 V 40.7002 c 5.6924,-4.14251 11.911,-6.21864 18.6657,-6.21864 c 4.7176,0 8.5385,1.58877 11.4626,4.75658 c 2.9339,3.1678 4.3959,7.11537 4.3959,11.83296 z"
         style="fill:#646464;fill-opacity:1"
         id="path52" />
      <path
         d="m 346.7006,60.52578 c 0,-5.59483 -1.0624,-10.21495 -3.1776,-13.87011 c -2.5147,-4.45442 -6.4233,-6.80347 -11.7062,-7.04715 c -9.7666,0.56534 -14.6401,7.56375 -14.6401,20.97574 c 0,6.15042 1.0137,11.28713 3.0605,15.41015 c 2.6123,5.25368 6.5306,7.84641 11.755,7.75869 c 9.8056,-0.078 14.7084,-7.81717 14.7084,-23.22732 z m 9.7568,0.0585 c 0,7.96338 -2.0371,14.5914 -6.1016,19.88407 c -4.474,5.92623 -10.6536,8.89909 -18.539,8.89909 c -7.8172,0 -13.9091,-2.97286 -18.305,-8.89909 c -3.9866,-5.29267 -5.975,-11.92069 -5.975,-19.88407 c 0,-7.48576 2.1541,-13.78238 6.4623,-18.90935 c 4.5519,-5.43888 10.5366,-8.16806 17.9346,-8.16806 c 7.3981,0 13.4218,2.72918 18.0614,8.16806 c 4.3082,5.12697 6.4623,11.42359 6.4623,18.90935 z"
         style="fill:#646464;fill-opacity:1"
         id="path54" />
      <path
         d="m 407.5322,88.266 h -8.9089 V 51.92885 c 0,-3.98656 -1.1989,-7.09588 -3.5966,-9.33772 c -2.3978,-2.23208 -5.5949,-3.31401 -9.5814,-3.22628 c -4.2302,0.078 -8.2558,1.46206 -12.0767,4.14251 V 88.266 h -8.9088 V 42.40594 c 5.127,-3.73313 9.8446,-6.16991 14.1528,-7.31032 c 4.0645,-1.06243 7.6514,-1.58877 10.7413,-1.58877 c 2.1151,0 4.1035,0.20469 5.9749,0.61406 c 3.4992,0.80901 6.3454,2.31006 8.5385,4.51291 c 2.4465,2.43677 3.6649,5.3609 3.6649,8.78212 z"
         style="fill:#646464;fill-opacity:1"
         id="path56" />
    </g>
    <path
       style="fill:#646464;fill-opacity:1;stroke-width:3.69262"
       d="m 511.5909,269.4616 c -120.4673,0 -217.9415,35.4237 -292.0632,105.932 c -70.1535,66.4649 -105.2396,148.054 -105.2396,245.0975 c 0,103.2353 32.3615,189.178 97.2774,257.7909 c 71.5821,76.826 170.7714,115.3943 298.0635,115.3943 c 128.4034,0 229.0199,-38.5683 301.8715,-115.3943 c 19.5007,-20.2156 36.0858,-41.9766 49.8504,-65.198 H 712.9538 C 674.5155,884.3338 607.719,920.2597 512.5141,920.8623 C 427.4408,921.9996 363.6114,888.3462 321.0747,820.2385 C 287.744,766.7889 271.2244,700.2236 271.2244,620.4911 c 0,-173.8695 79.3688,-264.6555 238.4046,-271.9842 c 86.0255,3.1587 149.6821,33.646 190.6314,91.3923 c 7.7955,10.7248 14.618,22.1483 20.6554,34.1567 h 157.975 C 861.5351,438.0806 837.111,405.2333 805.6152,375.3936 C 730.065,304.8853 632.0581,269.4616 511.5909,269.4616 Z"
       id="path2196"
       inkscape:export-filename="/home/sbehnel/source/Python/pyrex/cython-logo-C.png"
       inkscape:export-xdpi="83.080002"
       inkscape:export-ydpi="83.080002" />
  </g>
</svg>
